PathFileType	4	(X/Y/Z)	SUBJ89_0_static_RCNL2025.trc
DataRate	CameraRate	NumFrames	NumMarkers	Units	OrigDataRate	OrigDataStartFrame	OrigNumFrames
100	100	12	25	mm	100	234	267
Frame#	Time	R_Shoulder			L_Shoulder			C7			J_Notch			R_Elbow			L_Elbow			R_Wrist			L_Wrist			R_Asis			L_Asis			Sacral			Thoracic			Sternum			R_Thigh_Lateral			R_Knee_Lateral			R_Shank_Lateral			R_Ankle_Lateral			R_Heel			R_Toe			L_Thigh_Lateral			L_Knee_Lateral			L_Shank_Lateral			L_Ankle_Lateral			L_Heel			L_Toe		
		X1	Y1	Z1	X2	Y2	Z2	X3	Y3	Z3	X4	Y4	Z4	X5	Y5	Z5	X6	Y6	Z6	X7	Y7	Z7	X8	Y8	Z8	X9	Y9	Z9	X10	Y10	Z10	X11	Y11	Z11	X12	Y12	Z12	X13	Y13	Z13	X14	Y14	Z14	X15	Y15	Z15	X16	Y16	Z16	X17	Y17	Z17	X18	Y18	Z18	X19	Y19	Z19	X20	Y20	Z20	X21	Y21	Z21	X22	Y22	Z22	X23	Y23	Z23	X24	Y24	Z24	X25	Y25	Z25
234	2.33000000	-228.917114	1453.518188	-45.459023	-258.093994	1450.652710	-433.397949	-297.238251	1515.848267	-242.752579	-166.771576	1400.702271	-240.898132	-249.523697	1192.254883	132.638367	-227.011459	1186.887573	-609.765930	-162.619919	965.706238	251.896866	-121.260571	977.698151	-737.112122	-152.554306	1002.697693	-109.985390	-145.422897	1007.758606	-351.450653	-320.321899	1050.849731	-222.001801	-365.050140	1334.892822	-230.257324	-128.008194	1253.905518	-248.956635	-214.099792	619.990295	-37.418640	-231.685410	501.880554	-89.860054	-283.656128	283.797363	-32.573833	-317.119812	74.719818	-95.942535	-352.221619	64.077789	-141.769150	-157.002136	35.896706	-101.018349	-197.831085	578.509583	-447.019440	-211.307922	493.317047	-374.389069	-268.320770	266.786102	-428.479736	-288.409607	67.420883	-366.130096	-325.226624	72.291634	-317.593903	-131.437393	35.576328	-360.253265
235	2.34000000	-228.961624	1453.465698	-45.447372	-258.108795	1450.685425	-433.365265	-297.240662	1515.761597	-242.733582	-166.875656	1400.666870	-240.905838	-249.567047	1192.177490	132.684723	-227.015121	1186.892822	-609.761536	-162.595085	965.629761	251.889389	-121.227592	977.770966	-737.103882	-152.630234	1002.728394	-109.970375	-145.491425	1007.835754	-351.495819	-320.255768	1050.764404	-222.039749	-365.096375	1334.862549	-230.336746	-127.968445	1254.002197	-248.938126	-214.140579	619.981934	-37.423004	-231.687988	501.855194	-89.866341	-283.671814	283.992828	-32.434898	-317.221283	74.766022	-95.882759	-352.268066	64.034203	-141.751251	-157.061752	35.920872	-101.039391	-197.891495	578.451782	-447.085724	-211.309509	493.318787	-374.389801	-268.333496	266.812103	-428.457703	-288.381805	67.378799	-366.170685	-325.177612	72.259422	-317.543213	-131.386780	35.595768	-360.277588
236	2.35000000	-228.945480	1453.307251	-45.397507	-258.124786	1450.694336	-433.331482	-297.331879	1515.726440	-242.652237	-166.815872	1400.617310	-240.843277	-249.581482	1192.139893	132.685699	-227.032333	1186.926636	-609.738831	-162.598724	965.578186	251.865204	-121.213322	977.802338	-737.122223	-152.628754	1002.718201	-109.971970	-145.586380	1007.820984	-351.426575	-320.375183	1050.756958	-222.069473	-365.190063	1334.876465	-230.278259	-127.994514	1253.876953	-248.928864	-214.087524	619.971619	-37.428516	-231.741882	501.801666	-89.828056	-283.630859	283.774597	-32.525265	-317.229828	74.778748	-95.874382	-352.293762	64.020279	-141.729446	-157.054932	35.899452	-101.060509	-197.797150	578.520935	-447.124542	-211.309296	493.306030	-374.360535	-268.295654	266.743378	-428.452881	-288.432281	67.321465	-366.113770	-325.223694	72.257393	-317.598816	-131.416901	35.539768	-360.253204
237	2.36000000	-228.986603	1453.314941	-45.366993	-258.199280	1450.693970	-433.253052	-297.324768	1515.767944	-242.541489	-166.957367	1400.626465	-240.837738	-249.686157	1192.065918	132.663193	-227.058884	1186.978271	-609.777710	-162.641319	965.506958	251.823448	-121.297195	977.847534	-737.214203	-152.674911	1002.709656	-110.013687	-145.661987	1007.825012	-351.477905	-320.391754	1050.762817	-222.066559	-365.197784	1334.879517	-230.271332	-128.107864	1253.915771	-248.999222	-214.137650	619.987061	-37.430275	-231.674240	501.834625	-89.853729	-283.673279	283.697083	-32.547779	-317.236847	74.777412	-95.872398	-352.267426	64.076828	-141.718292	-156.994141	35.887768	-101.025162	-197.864441	578.418213	-447.041321	-211.308746	493.304535	-374.357330	-268.301605	266.765015	-428.506042	-288.432068	67.313171	-366.109283	-325.234253	72.240944	-317.599335	-131.442123	35.573174	-360.249634
238	2.37000000	-229.097717	1453.284058	-45.315529	-258.200989	1450.706909	-433.249084	-297.398865	1515.796509	-242.494049	-167.022339	1400.555542	-240.811295	-249.697586	1192.066040	132.664536	-227.067276	1187.024414	-609.760010	-162.664154	965.438751	251.781441	-121.281193	977.902344	-737.221771	-152.741547	1002.735596	-110.021362	-145.741730	1007.808533	-351.449982	-320.465271	1050.779419	-222.024124	-365.194275	1334.878540	-230.273300	-128.204666	1253.863525	-248.906891	-214.077042	620.011841	-37.476665	-231.674362	501.873749	-89.866203	-283.548492	283.760284	-32.573200	-317.237854	74.773323	-95.874092	-352.248352	64.089546	-141.777176	-157.002487	35.890881	-101.063286	-197.916901	578.450195	-447.068817	-211.308914	493.318024	-374.387146	-268.309387	266.753510	-428.513062	-288.379303	67.399414	-366.134125	-325.180206	72.247902	-317.592590	-131.427597	35.578991	-360.257660
239	2.38000000	-229.127213	1453.287720	-45.295311	-258.149261	1450.734741	-433.228821	-297.386444	1515.707153	-242.473190	-167.052185	1400.511963	-240.796692	-249.725662	1192.010864	132.677368	-227.076004	1187.075317	-609.833313	-162.673393	965.406464	251.771935	-121.254375	977.947937	-737.238190	-152.747147	1002.727295	-110.014015	-145.752869	1007.839050	-351.472870	-320.470032	1050.686523	-222.008362	-365.332428	1334.912842	-230.288223	-128.336746	1253.852051	-248.921768	-214.126312	620.011414	-37.437962	-231.699188	501.896820	-89.842377	-283.528778	283.777893	-32.580608	-317.244049	74.808151	-95.890656	-352.239136	64.112663	-141.787552	-156.980209	35.910183	-101.027374	-197.961517	578.432983	-447.051849	-211.380219	493.345184	-374.445862	-268.303711	266.782745	-428.476990	-288.387512	67.415192	-366.146790	-325.119537	72.208618	-317.642365	-131.411697	35.582569	-360.307831
240	2.39000000	-228.828995	1453.259644	-45.521187	-258.166077	1450.770996	-433.182800	-297.498230	1515.748413	-242.382248	-167.051010	1400.501587	-240.763519	-249.770279	1191.947144	132.702530	-227.061356	1187.104492	-609.765625	-162.697639	965.359741	251.693092	-121.320595	978.024048	-737.212158	-152.851135	1002.700317	-109.940834	-145.749329	1007.835876	-351.476776	-320.493927	1050.724121	-221.982010	-365.348328	1334.875366	-230.295502	-128.378586	1253.776123	-248.955063	-214.116425	619.959229	-37.466927	-231.760895	501.817413	-89.832039	-283.785950	284.036438	-32.441208	-317.240814	74.798775	-95.857475	-352.269806	64.044029	-141.755463	-157.010529	35.910240	-101.018066	-198.053802	578.532532	-446.997681	-211.376099	493.370209	-374.458588	-268.326324	266.738251	-428.482727	-288.403992	67.372253	-366.128754	-325.160889	72.268234	-317.544647	-131.387802	35.633087	-360.305664
241	2.40000000	-228.877487	1453.214844	-45.460995	-258.174377	1450.764893	-433.182220	-297.516663	1515.782593	-242.374329	-167.126175	1400.514526	-240.702621	-249.873474	1191.863281	132.676346	-227.089920	1187.154907	-609.719604	-162.712402	965.305084	251.677666	-121.365650	978.082886	-737.275848	-152.859940	1002.666565	-109.938850	-145.910370	1007.838989	-351.459015	-320.591400	1050.784302	-221.916107	-365.389435	1334.903931	-230.223648	-128.374100	1253.768555	-248.960281	-214.180344	619.949585	-37.509308	-231.765839	501.816010	-89.818352	-283.726196	283.783447	-32.521820	-317.178833	74.793190	-95.802208	-352.286804	64.047729	-141.732040	-157.024734	35.915859	-101.015244	-198.190033	578.427734	-447.055817	-211.459473	493.356598	-374.400238	-268.337097	266.731018	-428.480957	-288.405579	67.377182	-366.108032	-325.163147	72.261734	-317.545746	-131.445328	35.576649	-360.274567
242	2.41000000	-229.230042	1453.158447	-45.213215	-258.177216	1450.767212	-433.174469	-297.469482	1515.789307	-242.286331	-167.134155	1400.505249	-240.676743	-249.896484	1191.912231	132.666779	-227.098190	1187.160156	-609.709106	-162.738434	965.213196	251.583717	-121.333675	978.123169	-737.292450	-152.844177	1002.664368	-109.959991	-145.929123	1007.848511	-351.462219	-320.642059	1050.758057	-221.864548	-365.409210	1334.920166	-230.198639	-128.370132	1253.779541	-248.952560	-214.286774	619.952087	-37.479687	-231.821045	501.834137	-89.786911	-283.852539	283.949921	-32.396793	-317.189545	74.733925	-95.771706	-352.274750	64.017799	-141.734421	-156.989059	35.886711	-101.036095	-198.218704	578.435059	-447.053955	-211.476730	493.359009	-374.368378	-268.371857	266.751160	-428.496887	-288.436066	67.369438	-366.087799	-325.180939	72.213608	-317.529175	-131.426239	35.592834	-360.247711
243	2.42000000	-229.297775	1453.165039	-45.160496	-258.200226	1450.773682	-433.134613	-297.464935	1515.781738	-242.294662	-167.113831	1400.555786	-240.636398	-249.943069	1191.799316	132.705170	-227.063049	1187.182495	-609.799072	-162.734566	965.148224	251.489113	-121.330784	978.138550	-737.293976	-152.838058	1002.653015	-109.953308	-145.912735	1007.875610	-351.443604	-320.600281	1050.766113	-221.912155	-365.384399	1334.872559	-230.222778	-128.462296	1253.887329	-248.805176	-214.359955	619.955139	-37.435802	-231.929306	501.855499	-89.822800	-283.903564	283.988678	-32.378941	-317.206055	74.736900	-95.786491	-352.264679	63.998711	-141.718887	-156.976562	35.907902	-101.036819	-198.311768	578.362488	-447.024536	-211.563919	493.383362	-374.436218	-268.447388	266.771729	-428.435852	-288.435699	67.371475	-366.081696	-325.109192	72.166885	-317.546600	-131.413712	35.538853	-360.242126
244	2.43000000	-229.291183	1453.178711	-45.153221	-258.257629	1450.775146	-433.119019	-297.540070	1515.764526	-242.260040	-167.107208	1400.584473	-240.634567	-249.995895	1191.828491	132.617752	-227.080399	1187.266357	-609.719055	-162.609474	965.158600	251.382942	-121.330746	978.206818	-737.329437	-152.971130	1002.712463	-109.975174	-145.985306	1007.859131	-351.403717	-320.594391	1050.750366	-221.917114	-365.464996	1334.911865	-230.181488	-128.433899	1253.838745	-248.825928	-214.463928	620.021118	-37.444832	-232.012405	501.891479	-89.771805	-283.768280	283.761658	-32.505573	-317.196777	74.764854	-95.803192	-352.322174	64.005165	-141.736420	-157.020355	35.941051	-100.992706	-198.367157	578.440918	-446.956177	-211.566528	493.419525	-374.421722	-268.476532	266.773193	-428.411957	-288.435852	67.351173	-366.076813	-325.260071	72.315643	-317.663818	-131.478363	35.571064	-360.220703
245	2.44000000	-229.378510	1453.148682	-45.187790	-258.266937	1450.840698	-433.064972	-297.573792	1515.803833	-242.232040	-167.106598	1400.585083	-240.637558	-250.010101	1191.666992	132.606766	-227.022491	1187.263184	-609.767944	-162.658066	965.091125	251.316628	-121.380646	978.259796	-737.322479	-153.089600	1002.669006	-109.888985	-146.052414	1007.863525	-351.439423	-320.701874	1050.790405	-221.847992	-365.476807	1334.903198	-230.174454	-128.417694	1253.866821	-248.839233	-214.485565	619.980896	-37.456459	-232.027069	501.899994	-89.739037	-283.855774	283.984436	-32.366806	-317.049286	74.666588	-95.882713	-352.339233	64.023483	-141.720123	-157.074112	35.935242	-101.032005	-198.395386	578.412842	-446.923035	-211.635483	493.410492	-374.358856	-268.475372	266.755676	-428.411224	-288.430756	67.314430	-366.109955	-325.181854	72.230377	-317.548370	-131.454407	35.597198	-360.260101
